<svg height="480pt" viewBox="-88 0 480 480" width="480pt" xmlns="http://www.w3.org/2000/svg"><path d="m128 400h16v80h-16zm0 0" fill="#bc8f6f"/><path d="m128 400h8v80h-8zm0 0" fill="#cb9e78"/><path d="m160 400h16v80h-16zm0 0" fill="#bc8f6f"/><path d="m160 400h8v80h-8zm0 0" fill="#cb9e78"/><path d="m96 400h48c0-44.183594-35.816406-80-80-80h-48c0 44.183594 35.816406 80 80 80zm0 0" fill="#5da351"/><path d="m208 400h-48c0-44.183594 35.816406-80 80-80h48c0 44.183594-35.816406 80-80 80zm0 0" fill="#5da351"/><path d="m64 320h-46.390625c7.414063 36.511719 39.6875 64 78.390625 64h46.390625c-7.414063-36.511719-39.6875-64-78.390625-64zm0 0" fill="#74c865"/><path d="m161.609375 384h46.390625c38.703125 0 70.976562-27.488281 78.390625-64h-46.390625c-38.703125 0-70.976562 27.488281-78.390625 64zm0 0" fill="#74c865"/><path d="m304 152c0 83.949219-68.050781 152-152 152s-152-68.050781-152-152 68.050781-152 152-152 152 68.050781 152 152zm0 0" fill="#5789d6"/><path d="m280 152c0-83.613281-62.679688-151.390625-140-151.390625s-140 67.777344-140 151.390625 62.679688 151.390625 140 151.390625 140-67.777344 140-151.390625zm0 0" fill="#699ce6"/><g fill="#74c865"><path d="m0 152c0 2.703125.265625 5.335938.398438 8h15.601562l16-16h24l16 16h24l24-24v-16l32-32-16-16v-32l16-16v-24c-83.945312 0-152 68.054688-152 152zm0 0"/><path d="m144 160v16l-16 16 24 24 16-16h16l16-16v-16l-16-16v-16l-8-8zm0 0"/><path d="m120 248-16-16v-24l-16-16h-16l-16 16h-16l-19.6875 19.6875c23.726562 41.191406 66.113281 70.273438 115.6875 75.457031v-15.144531l-16-16zm0 0"/></g><path d="m301.929688 128c-8.050782-50.601562-40.96875-92.792969-85.929688-113.726562v33.726562l-16 16v24l16 16v24l16 16h24l16-16zm0 0" fill="#5da351"/><path d="m298.503906 192h-34.503906l-16 16v24l-16 16v33.070312c32.191406-20 56.296875-51.621093 66.503906-89.070312zm0 0" fill="#5da351"/><path d="m216 28.257812v19.742188l-16 16v24l16 16v24l16 16 16-16h29.929688c-6.539063-41.078125-29.472657-76.625-61.929688-99.742188zm0 0" fill="#74c865"/><path d="m248 232-16 16v14.511719c20.070312-18.886719 35.03125-43.113281 42.503906-70.511719h-10.503906l-16 16zm0 0" fill="#74c865"/></svg>