<?xml version="1.0" encoding="iso-8859-1"?>
<!-- Generator: Adobe Illustrator 19.0.0, SVG Export Plug-In . SVG Version: 6.00 Build 0)  -->
<svg version="1.1" id="Capa_1" xmlns="http://www.w3.org/2000/svg" xmlns:xlink="http://www.w3.org/1999/xlink" x="0px" y="0px"
	 viewBox="0 0 512 512" style="enable-background:new 0 0 512 512;" xml:space="preserve">
<path style="fill:#3AAAFF;" d="M500.6,210.6l-57.9-14.7c-3.3-10.499-7.5-20.7-12.599-30.599l30.599-51c3.6-6,2.701-13.5-2.1-18.3
	L416,53.4c-4.799-4.799-12.299-5.7-18.3-2.1l-51,30.601c-9.901-5.099-20.099-9.3-30.601-12.599l-14.7-57.9
	C299.9,4.8,293.899,0.001,287,0.001h-60c-6.899,0-12.9,4.799-14.399,11.4l-14.7,57.9c-10.501,3.3-20.7,7.5-30.601,12.599l-51-30.601
	c-6-3.6-13.5-2.699-18.3,2.1L55.401,96.001c-4.801,4.799-5.7,12.299-2.1,18.3l30.599,51C78.801,175.2,74.6,185.4,71.301,195.9
	l-59.9,14.7C4.799,212.101,0,218.1,0,225.001v60c0,6.899,4.799,12.9,11.4,14.399l59.9,14.7c3.3,10.501,7.5,20.7,12.599,30.601
	l-30.599,51c-3.6,6-2.701,13.5,2.1,18.3L98,456.6c4.799,4.801,12.299,5.7,18.3,2.1l51-30.601c9.901,5.101,20.099,9.3,30.601,12.601
	l14.7,59.9c1.5,6.599,7.5,11.4,14.399,11.4h60c6.899,0,12.9-4.801,14.399-11.4l14.7-59.9c10.501-3.301,20.7-7.5,30.601-12.601
	l51,30.601c6,3.6,13.5,2.701,18.3-2.1l42.599-42.599c4.801-4.799,5.7-12.299,2.1-18.3l-30.599-51
	c5.099-9.901,9.3-20.099,12.599-30.601l57.9-14.7c6.601-1.5,11.4-7.5,11.4-14.399v-60C512,218.1,507.201,212.101,500.6,210.6z
	 M257,390.001c-74.7,0-135-60.3-135-135s60.3-135,135-135s135,60.3,135,135S331.7,390.001,257,390.001z"/>
<path style="fill:#008ADF;" d="M512,225.001v60c0,6.899-4.799,12.9-11.4,14.399l-57.9,14.7c-3.3,10.501-7.5,20.7-12.599,30.601
	l30.599,51c3.6,6,2.701,13.5-2.1,18.3L416,456.6c-4.799,4.801-12.299,5.7-18.3,2.1l-51-30.601
	c-9.901,5.101-20.099,9.3-30.601,12.601l-14.7,59.9c-1.5,6.599-7.5,11.4-14.399,11.4h-30V390.001c74.7,0,135-60.3,135-135
	s-60.3-135-135-135v-120h30c6.899,0,12.9,4.799,14.399,11.4l14.7,57.9c10.501,3.3,20.7,7.5,30.601,12.599l51-30.601
	c6-3.6,13.5-2.699,18.3,2.1l42.599,42.602c4.801,4.799,5.7,12.299,2.1,18.3l-30.599,51c5.099,9.899,9.3,20.099,12.599,30.599
	l57.9,14.7C507.201,212.101,512,218.1,512,225.001z"/>
<path style="fill:#89F900;" d="M509.764,14.965c-0.636-3.181-2.122-6.364-4.243-8.485s-5.303-3.607-8.484-4.243
	c-4.88-0.636-119.218-16.547-182.434,46.669c-63.215,63.215-47.305,177.554-46.668,182.433c0.423,3.394,2.121,6.365,4.242,8.486
	s5.092,3.818,8.486,4.242c4.879,0.637,119.218,16.547,182.433-46.668C526.311,134.183,510.4,19.844,509.764,14.965z"/>
<g>
	<path style="fill:#77DD00;" d="M463.095,197.399c-63.215,63.215-177.554,47.305-182.433,46.668
		c-3.394-0.423-6.365-2.121-8.486-4.242L505.521,6.48c2.121,2.121,3.607,5.303,4.243,8.485
		C510.4,19.844,526.311,134.183,463.095,197.399z"/>
	<path style="fill:#77DD00;" d="M420.668,112.546L261.569,271.645c-5.939,5.939-15.273,5.94-21.213,0s-5.939-15.274,0-21.213
		L399.455,91.333c5.94-5.94,15.273-5.94,21.213,0C426.609,97.273,426.609,106.606,420.668,112.546z"/>
	<path style="fill:#77DD00;" d="M452.488,116.788h-42.426c-4.031,0.214-7.849-1.484-10.607-4.242s-4.455-6.576-4.242-10.607V59.513
		c-0.212-8.273,6.576-15.062,14.85-14.85c8.272-0.211,15.059,6.576,14.848,14.848l0.212,27.366l27.366,0.212
		c8.272-0.211,15.059,6.576,14.848,14.848C467.55,110.212,460.761,117,452.488,116.788z"/>
	<path style="fill:#77DD00;" d="M388.848,180.427h-42.426c-4.031,0.214-7.849-1.484-10.607-4.242
		c-2.758-2.758-4.455-6.576-4.242-10.607v-42.426c-0.212-8.273,6.576-15.062,14.85-14.85c8.272-0.211,15.059,6.576,14.848,14.848
		l0.212,27.366l27.366,0.212c8.272-0.211,15.059,6.576,14.848,14.848C403.91,173.851,397.122,180.64,388.848,180.427z"/>
</g>
<g>
	<path style="fill:#00CC71;" d="M403.698,165.578c0.212,8.273-6.576,15.062-14.849,14.85h-42.426
		c-4.031,0.214-7.849-1.484-10.607-4.242l25.668-25.668l27.366,0.212C397.122,150.518,403.909,157.306,403.698,165.578z"/>
	<path style="fill:#00CC71;" d="M410.062,116.788c-4.031,0.214-7.849-1.484-10.607-4.242l25.668-25.668l27.366,0.212
		c8.272-0.211,15.059,6.576,14.848,14.848c0.212,8.273-6.576,15.062-14.849,14.85H410.062z"/>
	<path style="fill:#00CC71;" d="M420.668,112.546L261.569,271.645c-5.939,5.939-15.273,5.94-21.213,0L420.668,91.333
		C426.609,97.273,426.609,106.606,420.668,112.546z"/>
</g>
<g>
</g>
<g>
</g>
<g>
</g>
<g>
</g>
<g>
</g>
<g>
</g>
<g>
</g>
<g>
</g>
<g>
</g>
<g>
</g>
<g>
</g>
<g>
</g>
<g>
</g>
<g>
</g>
<g>
</g>
</svg>
