<svg height="512pt" viewBox="0 -8 512 511" width="512pt" xmlns="http://www.w3.org/2000/svg"><path d="m195.332031 449.5h-165.332031c-16.570312 0-30-13.433594-30-30v-51.078125c0-17.214844 3.175781-34.285156 9.367188-50.351563l31.890624-82.738281c6.933594-17.984375 18.996094-33.253906 34.890626-44.160156 15.890624-10.90625 34.480468-16.671875 53.753906-16.671875h65.433594v275zm0 0" fill="#49ba6e"/><path d="m120.332031 334.746094v-55.246094c0-16.570312-13.429687-30-30-30h-54.53125l-26.433593 68.570312c-3.332032 8.644532-5.78125 17.582032-7.339844 26.675782h108.308594c5.519531 0 9.996093-4.476563 9.996093-10zm0 0" fill="#152940"/><g fill="#1f6048"><path d="m225.355469 139.042969c-8.285157 0-15-6.71875-15-15v-30c0-8.285157 6.714843-15 15-15 8.285156 0 15 6.714843 15 15v30c0 8.28125-6.714844 15-15 15zm0 0"/><path d="m285.355469 139.042969c-8.285157 0-15-6.71875-15-15v-30c0-8.285157 6.714843-15 15-15 8.285156 0 15 6.714843 15 15v30c0 8.28125-6.714844 15-15 15zm0 0"/><path d="m345.355469 139.042969c-8.285157 0-15-6.71875-15-15v-30c0-8.285157 6.714843-15 15-15 8.285156 0 15 6.714843 15 15v30c0 8.28125-6.714844 15-15 15zm0 0"/></g><path d="m492 449h-325.667969c-.550781 0-1-.449219-1-1v-319c0-11.046875 8.953125-20 20-20h202.96875c5.988281 0 11.660157 2.683594 15.457031 7.308594l103.699219 126.292968c2.9375 3.578126 4.542969 8.0625 4.542969 12.691407v173.707031c0 11.046875-8.953125 20-20 20zm0 0" fill="#148253"/><path d="m403.761719 116.308594c-3.800781-4.628906-9.472657-7.308594-15.457031-7.308594h-49.636719v340h153.332031c11.046875 0 20-8.957031 20-20v-173.707031c0-4.628907-1.605469-9.113281-4.542969-12.691407zm0 0" fill="#227351"/><path d="m125 446.460938c0 19.332031-15.671875 35-35 35s-35-15.667969-35-35c0-19.328126 15.671875-35 35-35s35 15.671874 35 35zm0 0" fill="#a7d533"/><path d="m90 496.464844c-27.570312 0-50-22.429688-50-50 0-27.570313 22.429688-50 50-50s50 22.429687 50 50c0 27.570312-22.429688 50-50 50zm0-70c-11.027344 0-20 8.972656-20 20s8.972656 20 20 20 20-8.972656 20-20c0-11.03125-8.972656-20-20-20zm0 0" fill="#152940"/><path d="m447 446.460938c0 19.332031-15.671875 35-35 35s-35-15.667969-35-35c0-19.328126 15.671875-35 35-35s35 15.671874 35 35zm0 0" fill="#a7d533"/><path d="m412 496.464844c-27.570312 0-50-22.429688-50-50 0-27.570313 22.429688-50 50-50s50 22.429687 50 50c0 27.570312-22.429688 50-50 50zm0-70c-11.027344 0-20 8.972656-20 20s8.972656 20 20 20 20-8.972656 20-20c0-11.03125-8.972656-20-20-20zm0 0" fill="#152940"/><path d="m442.222656 251.21875c-5.859375-5.859375-15.355468-5.859375-21.210937 0l-1.519531 1.515625c-2.886719-19.800781-12.007813-38.085937-26.40625-52.480469-17.671876-17.675781-41.171876-27.40625-66.164063-27.40625s-48.492187 9.730469-66.164063 27.40625c-5.859374 5.855469-5.859374 15.355469 0 21.210938 5.855469 5.859375 15.355469 5.859375 21.210938 0 12.007812-12.007813 27.972656-18.617188 44.953125-18.617188s32.945313 6.609375 44.953125 18.617188c7.980469 7.980468 13.5625 17.722656 16.421875 28.328125-5.875-4.367188-14.207031-3.902344-19.535156 1.425781-5.855469 5.855469-5.855469 15.355469 0 21.214844l26.125 26.121094c2.929687 2.929687 6.769531 4.394531 10.605469 4.394531 3.839843 0 7.679687-1.464844 10.605468-4.394531l26.125-26.121094c5.859375-5.859375 5.859375-15.359375 0-21.214844zm0 0" fill="#a7d533"/><path d="m385.511719 336.425781c-12.007813 12.007813-27.972657 18.617188-44.953125 18.617188-16.980469 0-32.945313-6.609375-44.953125-18.617188-7.976563-7.980469-13.5625-17.722656-16.421875-28.324219 5.875 4.367188 14.207031 3.898438 19.535156-1.429687 5.855469-5.855469 5.855469-15.355469 0-21.210937l-26.125-26.125c-2.8125-2.816407-6.628906-4.394532-10.609375-4.394532-3.976563 0-7.792969 1.578125-10.605469 4.394532l-26.125 26.125c-5.855468 5.855468-5.855468 15.355468 0 21.210937 2.929688 2.929687 6.769532 4.394531 10.605469 4.394531 3.839844 0 7.679687-1.464844 10.609375-4.394531l1.515625-1.515625c2.886719 19.800781 12.011719 38.085938 26.40625 52.480469 17.675781 17.675781 41.171875 27.40625 66.167969 27.40625 24.992187 0 48.492187-9.730469 66.164062-27.40625 5.855469-5.855469 5.855469-15.355469 0-21.210938-5.855468-5.859375-15.355468-5.859375-21.210937 0zm0 0" fill="#a7d533"/><path d="m385.511719 336.425781c-12.007813 12.007813-27.972657 18.617188-44.953125 18.617188-.632813 0-1.261719-.027344-1.890625-.042969v30.023438c.628906.011718 1.257812.019531 1.890625.019531 24.992187 0 48.492187-9.730469 66.164062-27.40625 5.859375-5.855469 5.859375-15.355469 0-21.210938-5.855468-5.859375-15.355468-5.859375-21.210937 0zm0 0" fill="#49ba6e"/><path d="m421.011719 251.21875-1.519531 1.515625c-2.886719-19.800781-12.007813-38.085937-26.40625-52.480469-14.875-14.875-33.875-24.125-54.417969-26.679687v30.363281c12.507812 2.324219 24.015625 8.339844 33.207031 17.527344 7.980469 7.980468 13.5625 17.722656 16.421875 28.328125-5.875-4.367188-14.207031-3.902344-19.535156 1.425781-5.855469 5.855469-5.855469 15.355469 0 21.214844l26.125 26.121094c2.929687 2.929687 6.769531 4.394531 10.605469 4.394531 3.839843 0 7.679687-1.464844 10.605468-4.394531l26.125-26.121094c5.859375-5.859375 5.859375-15.355469 0-21.214844s-15.355468-5.859375-21.210937 0zm0 0" fill="#49ba6e"/><path d="m481.632812 147.832031c-3.839843 0-7.675781-1.464843-10.605468-4.394531-5.859375-5.855469-5.859375-15.355469 0-21.210938 7.25-7.25 10.902344-13.59375 10.855468-18.847656-.042968-5.1875-3.695312-11.445312-10.855468-18.605468-26.128906-26.128907-26.128906-53.75 0-79.878907 5.859375-5.859375 15.355468-5.859375 21.214844 0 5.855468 5.855469 5.855468 15.351563 0 21.210938-14.527344 14.527343-14.527344 22.929687 0 37.453125 26.128906 26.128906 26.125 53.753906-.003907 79.878906-2.929687 2.929688-6.765625 4.394531-10.605469 4.394531zm0 0" fill="#c9dff7"/></svg>